<?xml version="1.0" standalone="no"?>
<!DOCTYPE svg PUBLIC "-//W3C//DTD SVG 1.1//EN" "http://www.w3.org/Graphics/SVG/1.1/DTD/svg11.dtd" >
<svg xmlns="http://www.w3.org/2000/svg">
<metadata></metadata>
<defs>
<font id="fetteengdotregular" horiz-adv-x="786" >
<font-face units-per-em="2048" ascent="1638" descent="-410" />
<missing-glyph horiz-adv-x="409" />
<glyph horiz-adv-x="2048" />
<glyph horiz-adv-x="2048" />
<glyph unicode="&#xd;" horiz-adv-x="2048" />
<glyph unicode=" "  horiz-adv-x="409" />
<glyph unicode="&#x09;" horiz-adv-x="409" />
<glyph unicode="&#xa0;" horiz-adv-x="409" />
<glyph unicode="!" horiz-adv-x="661" d="M211 1366h242l-74 -1024h-94zM233 0v195h195v-195h-195z" />
<glyph unicode="&#x22;" d="M180 1012v354h160v-354h-160zM449 1012v354h159v-354h-159z" />
<glyph unicode="#" horiz-adv-x="901" d="M10 414l25 176h135l37 268h-135l26 176h133l48 332h172l-48 -332h179l47 332h172l-47 -332h135l-25 -176h-135l-37 -268h135l-24 -176h-135l-60 -414h-172l60 414h-179l-57 -414h-172l57 414h-135zM342 590h178l37 268h-178z" />
<glyph unicode="$" d="M68 367v49h196v-49q0 -62 15 -91q13 -30 43.5 -48.5t66.5 -18.5q60 0 96 49q15 22 20 44.5t5 66.5v67q0 58 -11.5 85.5t-44.5 49t-118 56.5q-83 34 -129 68.5t-80 88.5q-26 44 -35.5 84.5t-9.5 106.5v35q0 115 58.5 201t162.5 124v140h182v-140q105 -38 163.5 -123.5 t58.5 -201.5v-62h-197v62q0 66 -32 105.5t-85 39.5q-52 0 -84.5 -40t-32.5 -105v-35q0 -72 26.5 -101.5t129.5 -70.5q148 -60 211.5 -141t63.5 -211v-84q0 -102 -28 -166.5t-95 -118.5q-41 -33 -99 -53v-166h-182v162q-114 34 -174.5 122.5t-60.5 219.5z" />
<glyph unicode="%" horiz-adv-x="940" d="M176 0l463 1366h123l-457 -1366h-129zM176 1122v103q0 64 43 108.5t105 44.5t104.5 -44.5t42.5 -108.5v-103q0 -68 -39 -107.5t-106 -39.5q-66 0 -108 41t-42 106zM274 1133q0 -60 50 -60q49 0 49 60v94q0 25 -13 39t-36 14t-36.5 -14.5t-13.5 -40.5v-92zM469 133v92 q0 64 42.5 109t104.5 45t105 -45t43 -109v-92q0 -68 -39.5 -106.5t-108.5 -38.5q-63 0 -105 41t-42 104zM567 133q0 -31 11.5 -45t37.5 -14q50 0 50 59v92q0 26 -13.5 41t-36.5 15t-36 -15t-13 -41v-92z" />
<glyph unicode="&#x26;" horiz-adv-x="1163" d="M160 375q0 141 55.5 245t190.5 214q-48 93 -69.5 160t-21.5 132q0 114 75.5 187t193.5 73q117 0 193.5 -70t76.5 -177q0 -92 -44 -168.5t-163 -192.5l127 -280q29 84 45 264h162q-4 -117 -32.5 -259.5t-65.5 -240.5l121 -262h-222l-32 80q-62 -54 -114.5 -76t-121.5 -22 q-157 0 -255.5 110t-98.5 283zM358 387q0 -88 47 -148.5t115 -60.5q90 0 142 98l-162 379q-142 -124 -142 -268zM504 1135q0 -82 59 -179q54 41 83.5 89t29.5 92q0 37 -25.5 62.5t-62.5 25.5t-60.5 -25t-23.5 -65z" />
<glyph unicode="'" horiz-adv-x="364" d="M102 1012v354h160v-354h-160z" />
<glyph unicode="(" horiz-adv-x="669" d="M195 692q0 416 217 770h65q-88 -344 -88 -751q0 -425 105 -807h-68q-110 166 -170.5 371t-60.5 417z" />
<glyph unicode=")" horiz-adv-x="669" d="M176 -96q49 177 77 391t28 418q0 399 -91 749h68q217 -361 217 -770q0 -211 -60 -415.5t-171 -372.5h-68z" />
<glyph unicode="*" horiz-adv-x="677" d="M88 1018l131 80l-129 82l70 114l114 -73v145h136v-145l112 73l72 -112l-129 -82l131 -80l-72 -113l-114 70v-139h-136v139l-114 -74z" />
<glyph unicode="+" d="M57 557v176h248v238h176v-238h250v-176h-250v-238h-176v238h-248z" />
<glyph unicode="," horiz-adv-x="391" d="M100 -145v340h195v-195z" />
<glyph unicode="-" horiz-adv-x="792" d="M104 440v195h584v-195h-584z" />
<glyph unicode="." horiz-adv-x="391" d="M98 0v195h195v-195h-195z" />
<glyph unicode="/" horiz-adv-x="649" d="M125 0l264 1366h135l-264 -1366h-135z" />
<glyph unicode="0" d="M100 301v772q0 77 22 130.5t73 99.5q84 75 198 75q78 0 146 -38.5t108 -104.5q22 -36 29.5 -70.5t7.5 -91.5v-772q0 -69 -12.5 -112t-46.5 -87q-41 -53 -103 -83.5t-127 -30.5q-123 0 -209 91t-86 222zM295 301q0 -56 26 -87.5t72 -31.5t71 31t25 88v772q0 51 -26 81 t-72 30q-43 0 -69.5 -31t-26.5 -80v-772z" />
<glyph unicode="1" d="M168 1016v207l194 143h195v-1366h-195v1161z" />
<glyph unicode="2" d="M92 975v98q5 95 37 152q38 71 107.5 112t150.5 41q123 0 208 -84.5t85 -206.5v-126q0 -32 -13.5 -81t-33.5 -85l-307 -600h354v-195h-584v180l363 705q15 29 19.5 47.5t4.5 52.5v102q0 40 -28.5 67.5t-69.5 27.5q-25 0 -47.5 -11.5t-34.5 -31.5q-10 -15 -12 -24.5 t-2 -41.5v-98h-197z" />
<glyph unicode="3" d="M86 313v80h195v-63q0 -56 4.5 -76t21.5 -39q30 -33 74 -33q94 0 94 131v211q0 49 -33 78q-21 16 -35 19.5t-55 3.5h-35v172h35q40 0 57.5 4.5t34.5 19.5q18 18 24.5 36.5t6.5 53.5v164q0 51 -25 80t-69 29q-53 0 -84 -39q-16 -21 -16 -70v-100h-195v100q0 131 82.5 217 t208.5 86q128 0 210.5 -85.5t82.5 -217.5v-160q0 -73 -26 -118.5t-91 -85.5q71 -47 94 -89.5t23 -125.5v-183q0 -70 -7 -101.5t-32 -74.5q-40 -69 -108 -109t-146 -40q-83 0 -156.5 48.5t-107.5 125.5q-27 58 -27 151z" />
<glyph unicode="4" d="M43 209v182l283 975h206l-292 -975h194v389h195v-389h96v-182h-96v-209h-195v209h-391z" />
<glyph unicode="5" d="M94 307v35h197v-35q0 -52 12 -74q27 -49 86 -49q53 0 78 43q10 15 13 33t3 62v266q0 41 -4.5 58t-21.5 34q-31 31 -72 31q-70 0 -94 -74h-172v729h559v-182h-387v-365q76 62 158 62q53 0 105 -28t83 -73q23 -33 32 -69.5t9 -94.5v-309q0 -78 -12.5 -120t-47.5 -85 q-41 -53 -103.5 -83.5t-127.5 -30.5q-69 0 -135 35t-107 92q-29 43 -40 83t-11 109z" />
<glyph unicode="6" d="M100 303v215q0 56 4 75.5t27 80.5l256 692h221l-221 -573q46 14 80 14q48 0 94 -21t76 -57q29 -33 39 -67.5t10 -96.5v-262q0 -69 -10 -106t-39 -78q-41 -61 -107 -96t-137 -35q-78 0 -145 37t-107 102q-23 40 -32 78t-9 98zM295 303q0 -57 26.5 -88t73.5 -31 q29 0 54.5 16t35.5 42q7 21 7 61v215q0 55 -26.5 86t-72.5 31q-41 0 -74 -33q-15 -17 -19.5 -32.5t-4.5 -51.5v-215z" />
<glyph unicode="7" d="M109 1024v342h583v-178l-319 -1188h-207l332 1184h-217v-160h-172z" />
<glyph unicode="8" d="M100 305v238q0 107 99 180q-56 41 -77.5 85t-21.5 116v186q0 103 89.5 185.5t203.5 82.5q120 0 205.5 -86t85.5 -207v-174q0 -120 -98 -188q52 -36 75 -82t23 -111v-247q0 -123 -84 -209t-205 -86q-69 0 -132.5 32t-104.5 89q-32 43 -45 86.5t-13 109.5zM295 305 q0 -123 96 -123q26 0 50 13.5t36 35.5t12 74v238q0 50 -25 77t-71 27q-43 0 -70.5 -29t-27.5 -75v-238zM295 911q0 -55 26 -85.5t72 -30.5q96 0 96 116v174q0 43 -27 71t-69 28q-43 0 -70.5 -28t-27.5 -71v-174z" />
<glyph unicode="9" d="M102 821v279q0 37 18 85t46 85q40 51 100 79.5t127 28.5q124 0 208.5 -88t84.5 -217v-223q0 -48 -5.5 -75.5t-27.5 -84.5l-258 -690h-223l229 575q-47 -12 -82 -12q-51 0 -97 23.5t-77 64.5q-26 36 -34.5 68t-8.5 102zM297 850q0 -53 27 -84t73 -31q36 0 66 27 q19 17 24 32.5t5 55.5v223q0 52 -26 81.5t-71 29.5q-44 0 -71 -30t-27 -81v-223z" />
<glyph unicode=":" horiz-adv-x="673" d="M240 176v195h194v-195h-194zM240 610v195h194v-195h-194z" />
<glyph unicode=";" horiz-adv-x="675" d="M240 342v195h194v-195h-194zM242 -145v340h194v-195z" />
<glyph unicode="&#x3c;" horiz-adv-x="1024" d="M68 594v180l886 434v-211l-661 -315l661 -315v-209z" />
<glyph unicode="=" d="M57 420v176h674v-176h-674zM57 694v176h674v-176h-674z" />
<glyph unicode="&#x3e;" horiz-adv-x="1024" d="M70 158v209l661 315l-661 315v211l886 -434v-180z" />
<glyph unicode="?" horiz-adv-x="892" d="M147 975v92q0 134 85 222.5t212 88.5q116 0 200.5 -84.5t84.5 -201.5v-117q0 -103 -47 -184l-100 -177q-34 -55 -40.5 -78t-6.5 -85v-109h-197v109q0 86 12 132.5t49 108.5l103 166q20 33 26.5 58.5t6.5 68.5v107q0 40 -28 66t-69 26q-96 0 -96 -117v-92h-195zM338 0v195 h197v-195h-197z" />
<glyph unicode="@" horiz-adv-x="1243" d="M82 604v156q0 130 27.5 222.5t91.5 176.5q76 104 189 161.5t239 57.5q117 0 227 -49t186 -135q63 -69 91 -149t28 -189v-238q0 -87 -9 -133t-34 -84q-63 -94 -215 -94q-78 0 -122 26t-66 83q-53 -59 -98 -84t-99 -25q-60 0 -103.5 44t-43.5 104q0 34 4 59l33 377 q6 71 57 118.5t121 47.5q92 0 137 -82l6 72h154l-41 -469q-6 -62 -6 -82q0 -38 24 -61t62 -23q51 0 72.5 37.5t21.5 128.5v266q0 85 -20 145.5t-66 116.5q-55 66 -136.5 104.5t-164.5 38.5q-94 0 -176.5 -46t-139.5 -130q-46 -71 -66 -145.5t-20 -177.5v-136 q0 -224 114 -361.5t300 -137.5q147 0 289 102l74 -100q-75 -60 -175.5 -94.5t-199.5 -34.5q-126 0 -239 57t-189 160q-64 84 -91.5 176.5t-27.5 222.5zM532 528q1 -30 20.5 -48.5t49.5 -18.5t53 20q17 15 22.5 29.5t8.5 54.5l21 236q2 14 2 33q0 29 -20.5 49t-49.5 20 q-49 0 -72 -41q-10 -13 -14 -61l-21 -236v-37z" />
<glyph unicode="A" horiz-adv-x="776" d="M2 0l305 1366h170l305 -1366h-209l-55 293h-254l-55 -293h-207zM299 475h184l-92 498z" />
<glyph unicode="B" horiz-adv-x="825" d="M106 0v1366h322q57 0 118.5 -26.5t104.5 -69.5q88 -88 88 -223v-107q0 -72 -35.5 -129.5t-101.5 -91.5q72 -43 104.5 -97.5t32.5 -132.5v-157q0 -145 -92.5 -238.5t-236.5 -93.5h-304zM301 195h113q63 0 103 38.5t40 98.5v157q0 68 -39 106t-108 38h-109v-438zM301 805 h117q66 0 102.5 41t36.5 115v86q0 62 -39.5 99.5t-105.5 37.5h-111v-379z" />
<glyph unicode="C" horiz-adv-x="788" d="M92 342v705q0 142 90.5 236.5t227.5 94.5q135 0 225 -95t90 -236v-72h-195v72q0 63 -31.5 99t-88.5 36q-56 0 -89.5 -37t-33.5 -98v-705q0 -63 4.5 -80.5t27.5 -40.5q34 -37 89 -37q32 0 61 16.5t47 43.5q9 15 11.5 31.5t2.5 66.5v47h195v-47q0 -73 -9 -114.5t-34 -84.5 q-41 -70 -115.5 -112.5t-156.5 -42.5t-157 42t-116 111q-26 42 -35.5 85.5t-9.5 115.5z" />
<glyph unicode="D" horiz-adv-x="829" d="M106 0v1366h310q136 0 228.5 -90.5t92.5 -224.5v-713q0 -152 -89.5 -245t-237.5 -93h-304zM301 182h96q146 0 146 156v713q0 56 -41 94.5t-101 38.5h-100v-1002z" />
<glyph unicode="E" horiz-adv-x="763" d="M106 0v1366h584v-182h-389v-402h342v-182h-342v-405h389v-195h-584z" />
<glyph unicode="F" horiz-adv-x="753" d="M106 0v1366h582v-182h-387v-412h340v-182h-340v-590h-195z" />
<glyph unicode="G" horiz-adv-x="835" d="M92 348v684q0 152 92.5 249t235.5 97q180 0 276 -147q32 -47 43 -87.5t11 -111.5v-57h-195v57q0 59 -14 82q-17 31 -50 50.5t-69 19.5q-61 0 -98 -41.5t-37 -110.5v-684q0 -48 1.5 -60.5t10.5 -29.5q17 -34 51 -54t72 -20q44 0 84 31q29 25 39 51.5t10 81.5v240h-158v170 h353v-410q0 -75 -10 -117t-38 -88q-46 -73 -118.5 -114t-157.5 -41q-80 0 -153 36t-119 99q-36 48 -49 95t-13 130z" />
<glyph unicode="H" horiz-adv-x="847" d="M106 0v1366h195v-584h246v584h194v-1366h-194v612h-246v-612h-195z" />
<glyph unicode="I" horiz-adv-x="407" d="M106 0v1366h195v-1366h-195z" />
<glyph unicode="J" horiz-adv-x="671" d="M-8 115l151 121q48 -54 109 -54q56 0 90 37q28 26 35.5 54.5t7.5 109.5v983h195v-1010q0 -82 -11 -125.5t-43 -93.5q-46 -69 -119 -109t-153 -40q-73 0 -142 33.5t-120 93.5z" />
<glyph unicode="K" horiz-adv-x="864" d="M106 0v1366h195v-629l295 629h192l-266 -545l314 -821h-207l-219 610l-109 -202v-408h-195z" />
<glyph unicode="L" horiz-adv-x="731" d="M106 0v1366h195v-1171h389v-195h-584z" />
<glyph unicode="M" horiz-adv-x="1089" d="M106 0v1366h181l260 -727l254 727h182v-1366h-195v831l-196 -583h-98l-193 583v-831h-195z" />
<glyph unicode="N" horiz-adv-x="894" d="M106 0v1366h183l305 -827v827h194v-1366h-182l-305 829v-829h-195z" />
<glyph unicode="O" horiz-adv-x="841" d="M92 332v702q0 149 93.5 246.5t236.5 97.5t235.5 -97t92.5 -247v-702q0 -150 -92.5 -247t-235.5 -97t-236.5 97.5t-93.5 246.5zM287 338q0 -46 9.5 -72t35.5 -49q41 -35 90 -35q35 0 68.5 21t52.5 55q12 27 12 80v696q0 38 -6 58.5t-23 42.5q-43 49 -102 49 q-73 0 -119 -66q-18 -32 -18 -84v-696z" />
<glyph unicode="P" horiz-adv-x="772" d="M106 0v1366h320q62 0 121 -25t102 -69q37 -39 63.5 -97t26.5 -102v-196q0 -84 -22.5 -142t-73.5 -108q-51 -48 -106 -68t-136 -20h-100v-539h-195zM301 723h102q44 0 69.5 8.5t47.5 30.5q24 24 30.5 44.5t6.5 70.5v178q0 57 -38.5 93t-98.5 36h-119v-461z" />
<glyph unicode="Q" horiz-adv-x="835" d="M92 348v680q0 152 93.5 251t238.5 99q135 0 231.5 -95t96.5 -228v-707q0 -59 -4 -86.5t-17 -58.5l129 -109l-108 -129l-119 96q-92 -73 -209 -73q-71 0 -140 31t-116 85q-44 53 -60 103.5t-16 140.5zM287 348q0 -56 7.5 -80t33.5 -47q42 -39 96 -39q21 0 51 13l-90 73 l111 131l61 -51v680q0 70 -37.5 113t-97.5 43q-63 0 -99 -42t-36 -114v-680z" />
<glyph unicode="R" horiz-adv-x="843" d="M106 0v1366h340q134 0 226 -94t92 -230v-127q0 -100 -37.5 -168t-122.5 -120l209 -627h-209l-182 586h-121v-586h-195zM301 758h135q41 0 66 10t47 35q20 24 26.5 44.5t6.5 67.5v127q0 63 -40 102.5t-104 39.5h-137v-426z" />
<glyph unicode="S" horiz-adv-x="792" d="M53 340v49h197v-49q0 -59 16 -90q17 -31 51 -49.5t74 -18.5q37 0 69.5 17.5t51.5 46.5q18 30 18 96v94q0 58 -12.5 85.5t-48 49t-127.5 56.5q-90 34 -140 68.5t-85 88.5q-29 44 -39 84t-10 107v61q0 143 95.5 242.5t233.5 99.5t233 -98.5t95 -243.5v-61h-195v61 q0 67 -36.5 107.5t-98.5 40.5q-60 0 -96.5 -41t-36.5 -107v-61q0 -72 29 -101.5t139 -70.5q158 -59 226.5 -140.5t68.5 -211.5v-111q0 -79 -13.5 -124.5t-52.5 -96.5q-101 -131 -268 -131q-149 0 -243.5 98.5t-94.5 253.5z" />
<glyph unicode="T" horiz-adv-x="720" d="M33 1184v182h657v-182h-233v-1184h-195v1184h-229z" />
<glyph unicode="U" horiz-adv-x="845" d="M104 322v1044h195v-1044q0 -65 33 -102.5t90 -37.5t90 38.5t33 101.5v1044h194v-1044q0 -104 -45 -179q-46 -74 -117.5 -114.5t-154.5 -40.5q-86 0 -162 44t-117 118q-39 74 -39 172z" />
<glyph unicode="V" horiz-adv-x="749" d="M12 1366h205l158 -948l162 948h206l-284 -1366h-168z" />
<glyph unicode="W" horiz-adv-x="1132" d="M31 1366h209l96 -825l158 825h145l160 -825l98 825h207l-193 -1366h-184l-160 831l-157 -831h-181z" />
<glyph unicode="X" d="M18 0l281 723l-254 643h205l147 -401l148 401h205l-256 -643l280 -723h-207l-170 463l-172 -463h-207z" />
<glyph unicode="Y" horiz-adv-x="702" d="M-8 1366h205l157 -535l160 535h207l-270 -778v-588h-195v588z" />
<glyph unicode="Z" horiz-adv-x="706" d="M66 0v174l366 1010h-340v182h559v-156l-366 -1015h366v-195h-585z" />
<glyph unicode="[" horiz-adv-x="669" d="M195 -96v1558h299v-108h-121v-1342h121v-108h-299z" />
<glyph unicode="\" horiz-adv-x="649" d="M125 1366h133l266 -1366h-135z" />
<glyph unicode="]" horiz-adv-x="669" d="M174 12h121v1342h-121v108h299v-1558h-299v108z" />
<glyph unicode="^" horiz-adv-x="1024" d="M53 750l340 620h238l342 -620h-195l-266 477l-266 -477h-193z" />
<glyph unicode="_" horiz-adv-x="1024" d="M0 -111h1024v-176h-1024v176z" />
<glyph unicode="`" horiz-adv-x="1024" d="M303 1393h209l104 -240h-161z" />
<glyph unicode="a" horiz-adv-x="739" d="M68 223v111q0 109 75 184q41 40 85.5 55t119.5 15h111v84q0 58 -21 84q-32 37 -76 37q-39 0 -66.5 -26.5t-31.5 -68.5h-196q3 123 87 206t207 83q120 0 205.5 -85t85.5 -204v-698h-194v98q-67 -110 -185 -110q-54 0 -103 28.5t-77 75.5q-26 48 -26 131zM264 289 q0 -49 27.5 -78t73.5 -29t75 37q13 18 16 36t3 79v94h-74q-121 0 -121 -92v-47z" />
<glyph unicode="b" horiz-adv-x="751" d="M88 0v1366h195v-487q66 108 186 108q94 0 149.5 -61t55.5 -164v-535q0 -65 -7 -93.5t-30 -59.5q-29 -40 -75 -63t-95 -23q-114 0 -184 110v-98h-195zM283 301q0 -39 6 -57t24 -35q30 -27 68 -27q41 0 70 29q21 21 24.5 34t3.5 74v367q0 48 -27 77.5t-71 29.5t-71 -29.5 t-27 -77.5v-385z" />
<glyph unicode="c" horiz-adv-x="702" d="M72 301v381q0 127 86 216t209 89q102 0 183.5 -68.5t100.5 -170.5q4 -23 4 -66h-194q0 49 -26.5 80t-69.5 31q-46 0 -72.5 -30t-26.5 -81v-381q0 -57 25 -87t71 -30q44 0 71.5 30.5t27.5 78.5h194q1 -129 -83.5 -217t-209.5 -88q-68 0 -132.5 34t-104.5 91 q-29 40 -41 82.5t-12 105.5z" />
<glyph unicode="d" horiz-adv-x="749" d="M78 250v526q0 90 59.5 150.5t147.5 60.5q121 0 182 -104v483h195v-1366h-195v100q-66 -112 -184 -112q-47 0 -92 23t-74 63q-25 34 -32 66t-7 110zM272 313q0 -43 5 -61.5t20 -36.5q30 -33 74 -33q38 0 65 27q20 19 25.5 36.5t5.5 67.5v351q0 41 -4.5 58.5t-18.5 35.5 q-30 35 -75 35q-28 0 -52 -14.5t-34 -37.5q-7 -13 -9 -26t-2 -51v-351z" />
<glyph unicode="e" horiz-adv-x="722" d="M72 317v369q0 126 85.5 213.5t207.5 87.5q124 0 207 -86t83 -215v-268h-389v-101q0 -54 4 -68.5t23 -35.5q25 -31 69 -31q41 0 67 26.5t32 74.5h194q0 -122 -84.5 -208.5t-205.5 -86.5q-79 0 -149.5 41.5t-106.5 111.5q-22 36 -29.5 73.5t-7.5 102.5zM266 575h195v99 q0 57 -25 88t-71 31q-28 0 -52.5 -14.5t-36.5 -39.5q-10 -17 -10 -65v-99z" />
<glyph unicode="f" horiz-adv-x="481" d="M33 821v154h96v135q0 115 76 188q40 38 82 53t114 15h68v-180h-72q-38 0 -55.5 -18t-17.5 -58v-135h145v-154h-145v-821h-195v821h-96z" />
<glyph unicode="g" horiz-adv-x="743" d="M72 -106h194q5 -48 30.5 -74.5t68.5 -26.5q50 0 79 43q12 15 15.5 30.5t3.5 49.5v184q-65 -112 -187 -112q-54 0 -103 29t-77 77q-17 30 -20.5 51t-3.5 86v543q0 94 58 153.5t149 59.5q113 0 184 -104v92h194v-1059q0 -76 -10.5 -116t-40.5 -81q-41 -58 -104.5 -90 t-136.5 -32q-123 0 -208 86t-85 211zM266 305q0 -51 13 -74q28 -49 88 -49q96 0 96 123v371q0 58 -25.5 89.5t-72.5 31.5q-38 0 -68 -27q-19 -19 -25 -37t-6 -57v-371z" />
<glyph unicode="h" horiz-adv-x="759" d="M88 0v1366h195v-485q69 106 182 106q53 0 99.5 -25.5t74.5 -68.5q33 -51 33 -137v-756h-195v682q0 53 -25 82t-71 29q-43 0 -70.5 -31t-27.5 -80v-682h-195z" />
<glyph unicode="i" horiz-adv-x="370" d="M88 0v975h195v-975h-195zM88 1176v190h195v-190h-195z" />
<glyph unicode="j" horiz-adv-x="370" d="M-29 -205h19q98 0 98 123v1057h195v-1073q0 -135 -74.5 -214t-202.5 -79h-35v186zM88 1176v190h195v-190h-195z" />
<glyph unicode="k" horiz-adv-x="778" d="M88 0v1366h195v-813l243 422h197l-231 -387l278 -588h-219l-172 416l-96 -146v-270h-195z" />
<glyph unicode="l" horiz-adv-x="413" d="M88 246v1120h195v-1085q0 -58 15.5 -76.5t66.5 -18.5h14v-186h-43q-136 0 -205 90q-25 32 -34 65t-9 91z" />
<glyph unicode="m" horiz-adv-x="1148" d="M88 0v975h195v-88q66 100 182 100q112 0 178 -100q76 100 191 100q101 0 166 -68.5t65 -175.5v-743h-195v690q0 103 -94 103q-44 0 -73 -30t-29 -73v-690h-195v690q0 44 -27.5 73.5t-70.5 29.5q-41 0 -69.5 -30t-28.5 -73v-690h-195z" />
<glyph unicode="n" horiz-adv-x="759" d="M88 0v975h195v-94q63 106 182 106q57 0 107.5 -29.5t76.5 -78.5q23 -45 23 -121v-758h-195v686q0 51 -25 79t-69 28t-72 -30t-28 -77v-686h-195z" />
<glyph unicode="o" horiz-adv-x="727" d="M72 299v389q0 128 84.5 213.5t210.5 85.5q124 0 206 -85t82 -214v-389q0 -134 -83.5 -222.5t-209.5 -88.5t-208 88.5t-82 222.5zM266 299q0 -52 27.5 -83.5t71.5 -31.5q25 0 48.5 12.5t35.5 32.5q12 19 12 70v389q0 46 -27.5 75.5t-71.5 29.5q-43 0 -69.5 -29.5 t-26.5 -75.5v-389z" />
<glyph unicode="p" horiz-adv-x="751" d="M88 -391v1366h195v-96q69 108 184 108q89 0 148 -61.5t59 -155.5v-561q0 -98 -57 -159.5t-148 -61.5q-58 0 -106.5 28.5t-79.5 79.5v-487h-195zM283 303q0 -58 25.5 -89.5t72.5 -31.5q29 0 54 15.5t36 38.5q8 19 8 67v381q0 49 -27 79t-71 30t-71 -30t-27 -79v-381z" />
<glyph unicode="q" horiz-adv-x="749" d="M78 215v561q0 89 59.5 150t147.5 61q116 0 182 -108v96h195v-1366h-195v487q-72 -108 -180 -108q-55 0 -104 28t-77 74q-17 27 -22.5 52t-5.5 73zM272 313q0 -44 4.5 -62t18.5 -36q30 -33 74 -33q57 0 86 47q12 22 12 84v371q0 49 -26.5 79t-69.5 30q-44 0 -71.5 -30 t-27.5 -79v-371z" />
<glyph unicode="r" horiz-adv-x="571" d="M88 0v975h195v-105q51 58 111 86t143 33v-203q-40 9 -60 9q-69 0 -129 -50q-37 -35 -51 -72.5t-14 -101.5v-571h-195z" />
<glyph unicode="s" horiz-adv-x="675" d="M47 281h182q0 -47 32 -78t79 -31q46 0 76 32t30 79q0 44 -23.5 68.5t-88.5 47.5l-39 15q-80 28 -116 50t-64 60q-58 76 -58 174q0 120 82 204.5t199 84.5q114 0 194.5 -81t83.5 -199h-180q-3 44 -29 70t-67 26q-43 0 -70.5 -29.5t-27.5 -73.5q0 -43 22 -66.5t82 -45.5 l64 -21q60 -22 93.5 -43.5t61.5 -56.5q68 -84 68 -186q0 -120 -86 -207.5t-203 -87.5q-77 0 -148.5 39.5t-109.5 103.5q-39 68 -39 152z" />
<glyph unicode="t" horiz-adv-x="481" d="M10 821v154h96v297h195v-297h121v-154h-121v-549q0 -54 14.5 -70t61.5 -16h45v-186h-62q-77 0 -128 22t-87 72q-23 32 -31 61.5t-8 82.5v583h-96z" />
<glyph unicode="u" horiz-adv-x="759" d="M88 242v733h195v-660q0 -62 12 -84q22 -49 84 -49q59 0 84 49q14 23 14 84v660h195v-975h-195v98q-38 -60 -79.5 -85t-100.5 -25q-57 0 -106.5 29t-77.5 79q-15 32 -20 58.5t-5 87.5z" />
<glyph unicode="v" horiz-adv-x="671" d="M-2 975h207l133 -631l135 631h207l-256 -975h-172z" />
<glyph unicode="w" horiz-adv-x="1036" d="M8 975h207l123 -606l111 606h143l113 -606l120 606h207l-231 -975h-168l-111 584l-110 -584h-170z" />
<glyph unicode="x" horiz-adv-x="651" d="M-12 0l248 502l-232 473h209l119 -277l127 277h207l-236 -473l238 -502h-207l-129 305l-137 -305h-207z" />
<glyph unicode="y" horiz-adv-x="673" d="M-6 975h207l135 -606l135 606h205l-281 -1141q-29 -114 -97.5 -169.5t-182.5 -55.5h-45v184h41q53 0 77 23t41 90l35 133z" />
<glyph unicode="z" horiz-adv-x="624" d="M45 0v158l315 647h-292v170h512v-146l-316 -647h316v-182h-535z" />
<glyph unicode="{" horiz-adv-x="669" d="M90 637v100q66 14 91.5 55.5t25.5 137.5v250q0 151 71 216.5t234 65.5q34 0 61 -2v-106q-129 -3 -165 -47q-17 -20 -22 -50t-5 -104v-231q0 -104 -28 -155t-103 -85q75 -35 103 -88t28 -156v-248q0 -110 36.5 -144t155.5 -34v-108q-123 0 -171.5 8t-92.5 35 q-55 34 -78.5 92.5t-23.5 163.5v243q0 96 -25 137t-92 54z" />
<glyph unicode="|" horiz-adv-x="1024" d="M406 -342v1708h212v-1708h-212z" />
<glyph unicode="}" horiz-adv-x="669" d="M96 12q119 0 156 34t37 144v248q0 103 28 156t103 88q-75 34 -103 85t-28 155v231q0 78 -6.5 109.5t-26.5 50.5q-38 38 -160 41v106q27 2 62 2q163 0 234 -65.5t71 -216.5v-250q0 -96 25.5 -137.5t91.5 -55.5v-100q-67 -13 -92 -54t-25 -137v-243q0 -104 -23.5 -163 t-79.5 -93q-44 -27 -92.5 -35t-171.5 -8v108z" />
<glyph unicode="~" horiz-adv-x="1366" d="M193 1255q59 128 127 188t157 60q44 0 93.5 -16.5t138.5 -59.5q89 -41 121.5 -52t66.5 -11q49 0 89 33t83 110l107 -86q-58 -130 -126.5 -190t-158.5 -60q-39 0 -79.5 14t-145.5 62q-91 42 -125.5 54t-69.5 12q-49 0 -87 -32.5t-83 -111.5z" />
<glyph unicode="&#xa1;" horiz-adv-x="661" d="M211 0l74 1022h94l74 -1022h-242zM236 1171v195h194v-195h-194z" />
<glyph unicode="&#xa2;" horiz-adv-x="681" d="M61 467v381q0 101 54.5 181t146.5 112v143h182v-141q94 -32 149.5 -113.5t51.5 -181.5h-194q0 51 -27 82t-70 31q-44 0 -71 -31t-27 -82v-381q0 -56 25.5 -86.5t72.5 -30.5q43 0 70 30t27 79h194q3 -98 -52 -177.5t-149 -111.5v-170h-182v170q-103 40 -152 111.5 t-49 185.5z" />
<glyph unicode="&#xa3;" d="M43 0v180h14q51 0 66.5 17.5t15.5 74.5v297h-96v183h96v295q0 146 86 238.5t221 92.5q82 0 150 -37.5t106 -103.5q43 -74 43 -190v-72h-194v72q0 63 -29 99t-80 36q-49 0 -78.5 -36.5t-29.5 -98.5v-295h282v-183h-282v-374h448v-195h-739z" />
<glyph unicode="&#xa4;" horiz-adv-x="800" d="M16 422l111 113q-16 52 -16 110v74q0 58 16 110l-111 113l123 123l101 -98q78 45 159 45q82 0 160 -45l100 98l123 -123l-110 -113q16 -52 16 -110v-74q0 -58 -16 -110l110 -113l-123 -123l-100 98q-75 -45 -160 -45q-84 0 -159 45l-101 -98zM270 664q0 -62 36 -103 t93 -41t93 40.5t36 103.5v36q0 63 -36 103.5t-93 40.5t-93 -41t-36 -103v-36z" />
<glyph unicode="&#xa5;" d="M35 1366h205l157 -535l160 535h207l-154 -444h113v-177h-174l-47 -137h221v-176h-229v-432h-195v432h-223v176h215l-45 137h-185v177h123z" />
<glyph unicode="&#xa6;" horiz-adv-x="1024" d="M406 313h212v-655h-212v655zM406 668v698h212v-698h-212z" />
<glyph unicode="&#xa7;" d="M35 696q0 167 137 260q-60 51 -85.5 104.5t-25.5 127.5q0 140 89.5 226.5t234.5 86.5t239.5 -87.5t94.5 -221.5v-33h-193q-2 60 -14 86q-13 28 -47.5 45t-75.5 17q-61 0 -96 -31.5t-35 -87.5q0 -62 38 -93.5t163 -74.5q156 -56 223.5 -127.5t67.5 -181.5 q0 -158 -138 -258q58 -51 82.5 -108.5t24.5 -143.5q0 -152 -90.5 -244t-241.5 -92q-126 0 -216.5 66t-115.5 175q-8 39 -8 101h191q3 -75 39.5 -111.5t109.5 -36.5q135 0 135 140q0 76 -43 114t-184 88q-138 51 -199 120t-61 175zM229 729q0 -97 97 -135l157 -59 q72 57 72 137q0 92 -102 129l-160 63q-64 -58 -64 -135z" />
<glyph unicode="&#xa8;" horiz-adv-x="1024" d="M268 1178v188h193v-188h-193zM563 1178v188h193v-188h-193z" />
<glyph unicode="&#xa9;" horiz-adv-x="1351" d="M68 604v158q0 127 31 220.5t102 178.5q86 101 212.5 159t262.5 58t262.5 -58t212.5 -159q71 -85 102 -178.5t31 -220.5v-158q0 -127 -31 -220.5t-102 -178.5q-86 -101 -212.5 -159t-262.5 -58t-262.5 58t-212.5 159q-71 85 -102 178.5t-31 220.5zM186 616 q0 -109 25.5 -188.5t83.5 -151.5q69 -88 170 -137t211 -49t211 49t170 137q58 71 83 150.5t25 189.5v134q0 110 -25 189.5t-83 150.5q-69 88 -170 137t-211 49t-211 -49t-170 -137q-58 -72 -83.5 -151.5t-25.5 -188.5v-134zM457 485v408q0 88 62.5 146.5t156.5 58.5 t156.5 -58.5t62.5 -146.5v-55h-154v55q0 63 -65 63q-31 0 -48.5 -17t-17.5 -46v-408q0 -37 6 -47q17 -30 60 -30q38 0 59 28q6 8 6 49v41h154v-41q0 -45 -6.5 -71t-24.5 -52q-29 -44 -79.5 -70t-106.5 -26q-57 0 -108.5 26t-82.5 70q-30 43 -30 123z" />
<glyph unicode="&#xaa;" horiz-adv-x="602" d="M92 690v53q0 74 52.5 117t142.5 43h59v45q0 56 -51 56q-45 0 -51 -46h-152q-3 80 55.5 133.5t149.5 53.5q83 0 143 -53t60 -127v-418h-154v59q-36 -65 -106 -65q-39 0 -73 17.5t-54 47.5q-21 33 -21 84zM246 713q0 -45 49 -45q29 0 40 15.5t11 55.5v56h-35 q-38 0 -51.5 -8t-13.5 -31v-43z" />
<glyph unicode="&#xab;" horiz-adv-x="870" d="M35 590l389 389v-193l-195 -196l195 -195v-196zM401 590l390 389v-193l-195 -196l195 -195v-196z" />
<glyph unicode="&#xac;" horiz-adv-x="1024" d="M68 391v187h886v-578h-206v391h-680z" />
<glyph unicode="&#xad;" horiz-adv-x="792" d="M104 440v195h584v-195h-584z" />
<glyph unicode="&#xae;" horiz-adv-x="1351" d="M68 604v158q0 127 31 220.5t102 178.5q86 101 212.5 159t262.5 58t262.5 -58t212.5 -159q71 -85 102 -178.5t31 -220.5v-158q0 -127 -31 -220.5t-102 -178.5q-86 -101 -212.5 -159t-262.5 -58t-262.5 58t-212.5 159q-71 85 -102 178.5t-31 220.5zM186 616 q0 -109 25.5 -188.5t83.5 -151.5q69 -88 170 -137t211 -49t211 49t170 137q58 71 83 150.5t25 189.5v134q0 110 -25 189.5t-83 150.5q-69 88 -170 137t-211 49t-211 -49t-170 -137q-58 -72 -83.5 -151.5t-25.5 -188.5v-134zM442 272v820h236q94 0 157.5 -58t63.5 -143v-74 q0 -117 -100 -174l137 -371h-164l-121 340h-55v-340h-154zM596 739h76q44 0 63 18.5t19 59.5v74q0 31 -22.5 49t-59.5 18h-76v-219z" />
<glyph unicode="&#xaf;" horiz-adv-x="1024" d="M281 1204v158h464v-158h-464z" />
<glyph unicode="&#xb0;" d="M172 1165q0 92 64.5 156.5t156.5 64.5q94 0 157.5 -64.5t63.5 -158.5q0 -91 -65 -155t-156 -64q-92 0 -156.5 64.5t-64.5 156.5zM309 1167q0 -35 25.5 -60.5t60.5 -25.5q34 0 59 25t25 59q0 37 -24.5 61.5t-59.5 24.5t-60.5 -25t-25.5 -59z" />
<glyph unicode="&#xb1;" d="M57 51v176h674v-176h-674zM57 557v176h248v238h176v-238h250v-176h-250v-238h-176v238h-248z" />
<glyph unicode="&#xb2;" horiz-adv-x="552" d="M68 1112v72q3 84 59.5 136t144.5 52q85 0 144 -52.5t59 -127.5v-74q0 -47 -33 -104l-186 -328h219v-141h-405v123l237 413q15 23 15 52v59q0 17 -14 28t-36 11q-49 0 -49 -47v-72h-155z" />
<glyph unicode="&#xb3;" horiz-adv-x="552" d="M63 743v45h154v-36q0 -38 11.5 -54t39.5 -16q47 0 47 61v121q0 25 -15 35t-50 10h-23v125h23q38 0 51.5 11t13.5 42v95q0 49 -47 49q-51 0 -51 -49v-58h-154v58q0 83 57 136.5t146 53.5q88 0 145.5 -53.5t57.5 -136.5v-92q0 -40 -16.5 -63t-67.5 -54q48 -24 66 -50 t18 -75v-105q0 -43 -5 -63.5t-22 -46.5q-29 -43 -75.5 -67.5t-100.5 -24.5q-59 0 -109 29.5t-75 78.5q-19 37 -19 94z" />
<glyph unicode="&#xb4;" horiz-adv-x="1024" d="M414 1153l106 240h207l-152 -240h-161z" />
<glyph unicode="&#xb5;" horiz-adv-x="759" d="M88 -391v1366h195v-660q0 -60 12 -82q22 -49 84 -49q59 0 84 49q14 21 14 82v660h195v-975h-195v98q-28 -60 -58 -85t-73 -25q-34 0 -63 20v-399h-195z" />
<glyph unicode="&#xb6;" horiz-adv-x="839" d="M39 1010v198q0 43 20.5 99.5t51.5 99.5q30 42 78 68t94 26h471v-1638h-152v1509h-84v-1509h-151v811h-60q-73 0 -124.5 28.5t-90.5 92.5q-53 80 -53 215z" />
<glyph unicode="&#xb7;" horiz-adv-x="391" d="M98 430v195h195v-195h-195z" />
<glyph unicode="&#xb8;" horiz-adv-x="1024" d="M377 -344l20 86q56 -35 109 -35q25 0 41 18t16 44t-14 41.5t-39 15.5q-18 0 -53 -12l-29 41l35 145h92l-20 -96q21 6 32 6q54 0 89.5 -37t35.5 -94q0 -69 -49 -115.5t-121 -46.5q-68 0 -145 39z" />
<glyph unicode="&#xb9;" horiz-adv-x="552" d="M115 1124v152l137 90h143v-819h-153v661z" />
<glyph unicode="&#xba;" horiz-adv-x="595" d="M94 733v225q0 80 59 133.5t148 53.5q86 0 143.5 -53.5t57.5 -133.5v-225q0 -84 -58.5 -139t-146.5 -55t-145.5 54.5t-57.5 139.5zM248 733q0 -53 51 -53q26 0 37.5 12.5t11.5 40.5v225q0 20 -14 33t-37 13q-22 0 -35.5 -13t-13.5 -33v-225z" />
<glyph unicode="&#xbb;" horiz-adv-x="878" d="M96 199v196l195 195l-195 196v193l389 -389zM467 199v196l195 195l-195 196v193l389 -389z" />
<glyph unicode="&#xbc;" horiz-adv-x="1343" d="M74 1124v152l137 90h143v-819h-153v661zM328 0l463 1366h141l-463 -1366h-141zM770 121v121l203 577h162l-205 -565h129v227h147v-227h56v-133h-56v-121h-147v121h-289z" />
<glyph unicode="&#xbd;" horiz-adv-x="1343" d="M88 1124v152l137 90h144v-819h-154v661zM342 0l463 1366h141l-463 -1366h-141zM829 565v72q8 56 27 94q26 43 74.5 68.5t105.5 25.5q85 0 144 -52.5t59 -127.5v-74q0 -43 -33 -104l-188 -326h221v-141h-405v123l237 412q12 22 12 51v59q0 17 -13.5 28t-35.5 11 q-49 0 -49 -47v-72h-156z" />
<glyph unicode="&#xbe;" horiz-adv-x="1343" d="M63 743v45h154v-36q0 -38 11.5 -54t39.5 -16q47 0 47 61v121q0 25 -15 35t-50 10h-23v125h23q38 0 51.5 11t13.5 42v95q0 49 -47 49q-51 0 -51 -49v-58h-154v58q0 83 57 136.5t146 53.5q88 0 145.5 -53.5t57.5 -136.5v-92q0 -40 -16.5 -63t-67.5 -54q48 -24 66 -50 t18 -75v-105q0 -43 -5 -63.5t-22 -46.5q-29 -43 -75.5 -67.5t-100.5 -24.5q-59 0 -109 29.5t-75 78.5q-19 37 -19 94zM391 0l461 1366h143l-463 -1366h-141zM813 121v121l201 577h162l-203 -565h127v227h147v-227h56v-133h-56v-121h-147v121h-287z" />
<glyph unicode="&#xbf;" horiz-adv-x="892" d="M164 272v117q0 106 47 184l100 177q34 55 40.5 79t6.5 86v109h197v-109q0 -87 -12 -134t-49 -109l-103 -166q-20 -33 -26.5 -58.5t-6.5 -68.5v-107q0 -39 27.5 -64.5t69.5 -25.5q96 0 96 115v92h194v-92q0 -132 -84.5 -220.5t-211.5 -88.5q-116 0 -200.5 84.5 t-84.5 199.5zM358 1171v195h197v-195h-197z" />
<glyph unicode="&#xc0;" horiz-adv-x="776" d="M2 0l305 1366h170l305 -1366h-209l-55 293h-254l-55 -293h-207zM154 1714h208l105 -239h-162zM299 475h184l-92 498z" />
<glyph unicode="&#xc1;" horiz-adv-x="776" d="M2 0l305 1366h170l305 -1366h-209l-55 293h-254l-55 -293h-207zM299 475h184l-92 498zM317 1475l107 239h207l-152 -239h-162z" />
<glyph unicode="&#xc2;" horiz-adv-x="776" d="M2 0l305 1366h170l305 -1366h-209l-55 293h-254l-55 -293h-207zM139 1475l166 239h170l162 -239h-176l-74 122l-86 -122h-162zM299 475h184l-92 498z" />
<glyph unicode="&#xc3;" horiz-adv-x="776" d="M2 0l305 1366h170l305 -1366h-209l-55 293h-254l-55 -293h-207zM131 1491q9 205 156 205q29 0 53.5 -6t93.5 -31q28 -8 41 -8q42 0 45 47h127q-5 -86 -22 -121q-42 -80 -133 -80q-33 0 -97 21q-61 20 -84 20q-19 0 -29 -10.5t-16 -36.5h-135zM299 475h184l-92 498z" />
<glyph unicode="&#xc4;" horiz-adv-x="776" d="M2 0l305 1366h170l305 -1366h-209l-55 293h-254l-55 -293h-207zM133 1466v195h193v-195h-193zM299 475h184l-92 498zM453 1466v195h192v-195h-192z" />
<glyph unicode="&#xc5;" horiz-adv-x="776" d="M2 0l305 1366h170l305 -1366h-209l-55 293h-254l-55 -293h-207zM221 1602q0 69 49.5 117t118.5 48q71 0 119.5 -48.5t48.5 -119.5q0 -69 -49.5 -117t-118.5 -48t-118.5 49.5t-49.5 118.5zM299 475h184l-92 498zM334 1602q0 -23 17 -39.5t40 -16.5q22 0 38.5 16.5 t16.5 39.5t-16 39t-39 16q-25 0 -41 -16t-16 -39z" />
<glyph unicode="&#xc6;" horiz-adv-x="1273" d="M0 0l571 1366h629v-182h-389v-402h342v-182h-342v-405h389v-195h-584v360h-270l-137 -360h-209zM416 543h200v510z" />
<glyph unicode="&#xc7;" horiz-adv-x="788" d="M92 342v705q0 142 90.5 236.5t227.5 94.5q135 0 225 -95t90 -236v-72h-195v72q0 63 -31.5 99t-88.5 36q-56 0 -89.5 -37t-33.5 -98v-705q0 -63 4.5 -81.5t27.5 -41.5q34 -37 89 -37q32 0 61 16.5t47 43.5q9 18 11.5 33.5t2.5 66.5v47h195v-47q0 -102 -22.5 -161.5 t-81.5 -112.5q-76 -67 -175 -78l-16 -86q18 6 31 6q54 0 89.5 -37.5t35.5 -93.5q0 -69 -49 -115.5t-121 -46.5q-70 0 -144 39l19 86q59 -35 108 -35q25 0 41.5 18t16.5 44t-14.5 41.5t-39.5 15.5q-21 0 -51 -12l-28 41l32 137q-107 20 -180 96q-46 50 -65 107t-19 147z" />
<glyph unicode="&#xc8;" horiz-adv-x="763" d="M106 0v1366h584v-182h-389v-402h342v-182h-342v-405h389v-195h-584zM201 1714h209l106 -239h-162z" />
<glyph unicode="&#xc9;" horiz-adv-x="763" d="M106 0v1366h584v-182h-389v-402h342v-182h-342v-405h389v-195h-584zM311 1475l105 239h209l-152 -239h-162z" />
<glyph unicode="&#xca;" horiz-adv-x="763" d="M106 0v1366h584v-182h-389v-402h342v-182h-342v-405h389v-195h-584zM145 1475l168 239h170l160 -239h-176l-74 122l-86 -122h-162z" />
<glyph unicode="&#xcb;" horiz-adv-x="763" d="M106 0v1366h584v-182h-389v-402h342v-182h-342v-405h389v-195h-584zM141 1466v195h193v-195h-193zM459 1466v195h192v-195h-192z" />
<glyph unicode="&#xcc;" horiz-adv-x="407" d="M-18 1714h208l105 -239h-162zM106 0v1366h195v-1366h-195z" />
<glyph unicode="&#xcd;" horiz-adv-x="407" d="M106 0v1366h195v-1366h-195zM119 1475l106 239h207l-151 -239h-162z" />
<glyph unicode="&#xce;" horiz-adv-x="407" d="M-47 1475l168 239h170l160 -239h-177l-73 122l-86 -122h-162zM106 0v1366h195v-1366h-195z" />
<glyph unicode="&#xcf;" horiz-adv-x="407" d="M-4 1466v195h166v-195h-166zM106 0v1366h195v-1366h-195zM246 1466v195h166v-195h-166z" />
<glyph unicode="&#xd0;" horiz-adv-x="829" d="M20 596v182h86v588h308q138 0 230.5 -91t92.5 -226v-711q0 -152 -89.5 -245t-237.5 -93h-304v596h-86zM301 182h94q148 0 148 156v711q0 57 -41 96t-101 39h-100v-406h119v-182h-119v-414z" />
<glyph unicode="&#xd1;" horiz-adv-x="894" d="M106 0v1366h183l305 -827v827h194v-1366h-182l-305 829v-829h-195zM188 1491q12 205 158 205q29 0 54.5 -6t93.5 -31q28 -8 41 -8q39 0 45 47h127q-5 -85 -25 -121q-39 -80 -131 -80q-34 0 -96 21q-61 20 -84 20q-19 0 -30 -10.5t-15 -36.5h-138z" />
<glyph unicode="&#xd2;" horiz-adv-x="841" d="M92 332v702q0 149 93.5 246.5t236.5 97.5t235.5 -97t92.5 -247v-702q0 -150 -92.5 -247t-235.5 -97t-236.5 97.5t-93.5 246.5zM213 1714h209l104 -239h-161zM287 338q0 -46 9.5 -72t35.5 -49q41 -35 90 -35q35 0 68.5 21t52.5 55q12 27 12 80v696q0 38 -6 58.5t-23 42.5 q-43 49 -102 49q-73 0 -119 -66q-18 -32 -18 -84v-696z" />
<glyph unicode="&#xd3;" horiz-adv-x="841" d="M92 332v702q0 149 93.5 246.5t236.5 97.5t235.5 -97t92.5 -247v-702q0 -150 -92.5 -247t-235.5 -97t-236.5 97.5t-93.5 246.5zM287 338q0 -46 9.5 -72t35.5 -49q41 -35 90 -35q35 0 68.5 21t52.5 55q12 27 12 80v696q0 38 -6 58.5t-23 42.5q-43 49 -102 49 q-73 0 -119 -66q-18 -32 -18 -84v-696zM322 1475l106 239h209l-154 -239h-161z" />
<glyph unicode="&#xd4;" horiz-adv-x="841" d="M92 332v702q0 149 93.5 246.5t236.5 97.5t235.5 -97t92.5 -247v-702q0 -150 -92.5 -247t-235.5 -97t-236.5 97.5t-93.5 246.5zM170 1475l168 239h170l160 -239h-174l-76 122l-86 -122h-162zM287 338q0 -46 9.5 -72t35.5 -49q41 -35 90 -35q35 0 68.5 21t52.5 55 q12 27 12 80v696q0 38 -6 58.5t-23 42.5q-43 49 -102 49q-73 0 -119 -66q-18 -32 -18 -84v-696z" />
<glyph unicode="&#xd5;" horiz-adv-x="841" d="M92 332v702q0 149 93.5 246.5t236.5 97.5t235.5 -97t92.5 -247v-702q0 -150 -92.5 -247t-235.5 -97t-236.5 97.5t-93.5 246.5zM162 1491q12 205 157 205q29 0 54.5 -6t93.5 -31q28 -8 41 -8q39 0 45 47h127q-5 -85 -25 -121q-39 -80 -131 -80q-34 0 -96 21q-61 20 -84 20 q-19 0 -30 -10.5t-15 -36.5h-137zM287 338q0 -46 9.5 -72t35.5 -49q41 -35 90 -35q35 0 68.5 21t52.5 55q12 27 12 80v696q0 38 -6 58.5t-23 42.5q-43 49 -102 49q-73 0 -119 -66q-18 -32 -18 -84v-696z" />
<glyph unicode="&#xd6;" horiz-adv-x="841" d="M92 332v702q0 149 93.5 246.5t236.5 97.5t235.5 -97t92.5 -247v-702q0 -150 -92.5 -247t-235.5 -97t-236.5 97.5t-93.5 246.5zM166 1466v195h192v-195h-192zM287 338q0 -46 9.5 -72t35.5 -49q41 -35 90 -35q35 0 68.5 21t52.5 55q12 27 12 80v696q0 38 -6 58.5t-23 42.5 q-43 49 -102 49q-73 0 -119 -66q-18 -32 -18 -84v-696zM483 1466v195h193v-195h-193z" />
<glyph unicode="&#xd7;" d="M70 444l198 201l-198 199l125 125l198 -199l201 199l125 -125l-201 -199l201 -201l-125 -125l-201 201l-198 -201z" />
<glyph unicode="&#xd8;" horiz-adv-x="841" d="M74 -18l63 168q-25 45 -35 84.5t-10 97.5v702q0 149 93.5 246.5t236.5 97.5q85 0 170 -47l39 105l137 -52l-63 -165q26 -47 35.5 -86t9.5 -99v-702q0 -151 -92.5 -247.5t-237.5 -96.5q-86 0 -170 47l-39 -105zM287 518l219 635q-42 31 -82 31q-38 0 -72 -21t-53 -55 q-12 -24 -12 -74v-516zM336 213q44 -31 84 -31q37 0 70.5 21t52.5 55q12 27 12 80v510z" />
<glyph unicode="&#xd9;" horiz-adv-x="845" d="M104 322v1044h195v-1044q0 -65 33 -102.5t90 -37.5t90 38.5t33 101.5v1044h194v-1044q0 -104 -45 -179q-46 -74 -117.5 -114.5t-154.5 -40.5q-86 0 -162 44t-117 118q-39 74 -39 172zM213 1714h209l106 -239h-161z" />
<glyph unicode="&#xda;" horiz-adv-x="845" d="M104 322v1044h195v-1044q0 -65 33 -102.5t90 -37.5t90 38.5t33 101.5v1044h194v-1044q0 -104 -45 -179q-46 -74 -117.5 -114.5t-154.5 -40.5q-86 0 -162 44t-117 118q-39 74 -39 172zM324 1475l104 239h209l-152 -239h-161z" />
<glyph unicode="&#xdb;" horiz-adv-x="845" d="M104 322v1044h195v-1044q0 -65 33 -102.5t90 -37.5t90 38.5t33 101.5v1044h194v-1044q0 -104 -45 -179q-46 -74 -117.5 -114.5t-154.5 -40.5q-86 0 -162 44t-117 118q-39 74 -39 172zM172 1475l168 239h168l162 -239h-176l-74 122l-86 -122h-162z" />
<glyph unicode="&#xdc;" horiz-adv-x="845" d="M104 322v1044h195v-1044q0 -65 33 -102.5t90 -37.5t90 38.5t33 101.5v1044h194v-1044q0 -104 -45 -179q-46 -74 -117.5 -114.5t-154.5 -40.5q-86 0 -162 44t-117 118q-39 74 -39 172zM166 1466v195h192v-195h-192zM485 1466v195h193v-195h-193z" />
<glyph unicode="&#xdd;" horiz-adv-x="702" d="M-8 1366h205l157 -535l160 535h207l-270 -778v-588h-195v588zM252 1475l106 239h209l-153 -239h-162z" />
<glyph unicode="&#xde;" horiz-adv-x="772" d="M106 0v1366h195v-219h125q62 0 121 -25t102 -69q37 -39 63.5 -97t26.5 -102v-197q0 -84 -22.5 -141.5t-73.5 -107.5q-52 -48 -106.5 -68.5t-135.5 -20.5h-100v-319h-195zM301 504h102q44 0 69.5 8.5t47.5 30.5q24 24 30.5 44t6.5 70v179q0 57 -38.5 93t-98.5 36h-119 v-461z" />
<glyph unicode="&#xdf;" horiz-adv-x="753" d="M88 0v1061q0 67 8 100.5t33 75.5q40 66 107 103.5t145 37.5q119 0 206 -83t87 -195v-125q0 -121 -109 -178q58 -36 83.5 -82.5t25.5 -112.5v-360q0 -69 -17.5 -112.5t-60.5 -78.5q-60 -51 -147 -51h-43v184h16q37 0 52 18.5t15 61.5v383q0 34 -16.5 48t-56.5 16h-10v170 h12q38 0 54.5 16t16.5 51v131q0 48 -28.5 76.5t-77.5 28.5q-100 0 -100 -123v-1061h-195z" />
<glyph unicode="&#xe0;" horiz-adv-x="739" d="M68 223v111q0 109 75 184q41 40 85.5 55t119.5 15h111v84q0 58 -21 84q-32 37 -76 37q-39 0 -66.5 -26.5t-31.5 -68.5h-196q3 123 87 206t207 83q120 0 205.5 -85t85.5 -204v-698h-194v98q-67 -110 -185 -110q-54 0 -103 28.5t-77 75.5q-26 48 -26 131zM160 1393h209 l106 -240h-162zM264 289q0 -49 27.5 -78t73.5 -29t75 37q13 18 16 36t3 79v94h-74q-121 0 -121 -92v-47z" />
<glyph unicode="&#xe1;" horiz-adv-x="739" d="M68 223v111q0 109 75 184q41 40 85.5 55t119.5 15h111v84q0 58 -21 84q-32 37 -76 37q-39 0 -66.5 -26.5t-31.5 -68.5h-196q3 123 87 206t207 83q120 0 205.5 -85t85.5 -204v-698h-194v98q-67 -110 -185 -110q-54 0 -103 28.5t-77 75.5q-26 48 -26 131zM264 289 q0 -49 27.5 -78t73.5 -29t75 37q13 18 16 36t3 79v94h-74q-121 0 -121 -92v-47zM270 1153l105 240h209l-152 -240h-162z" />
<glyph unicode="&#xe2;" horiz-adv-x="739" d="M68 223v111q0 109 75 184q41 40 85.5 55t119.5 15h111v84q0 58 -21 84q-32 37 -76 37q-39 0 -66.5 -26.5t-31.5 -68.5h-196q3 123 87 206t207 83q120 0 205.5 -85t85.5 -204v-698h-194v98q-67 -110 -185 -110q-54 0 -103 28.5t-77 75.5q-26 48 -26 131zM119 1147l168 239 h170l161 -239h-176l-73 123l-88 -123h-162zM264 289q0 -49 27.5 -78t73.5 -29t75 37q13 18 16 36t3 79v94h-74q-121 0 -121 -92v-47z" />
<glyph unicode="&#xe3;" horiz-adv-x="739" d="M68 223v111q0 109 75 184q41 40 85.5 55t119.5 15h111v84q0 58 -21 84q-32 37 -76 37q-39 0 -66.5 -26.5t-31.5 -68.5h-196q3 123 87 206t207 83q120 0 205.5 -85t85.5 -204v-698h-194v98q-67 -110 -185 -110q-54 0 -103 28.5t-77 75.5q-26 48 -26 131zM111 1165 q9 205 155 205q28 0 54 -6.5t94 -30.5q28 -8 43 -8q40 0 43 47h127q-2 -79 -23 -121q-42 -80 -133 -80q-32 0 -96 21q-61 20 -84 20q-19 0 -29 -10.5t-16 -36.5h-135zM264 289q0 -49 27.5 -78t73.5 -29t75 37q13 18 16 36t3 79v94h-74q-121 0 -121 -92v-47z" />
<glyph unicode="&#xe4;" horiz-adv-x="739" d="M68 223v111q0 109 75 184q41 40 85.5 55t119.5 15h111v84q0 58 -21 84q-32 37 -76 37q-39 0 -66.5 -26.5t-31.5 -68.5h-196q3 123 87 206t207 83q120 0 205.5 -85t85.5 -204v-698h-194v98q-67 -110 -185 -110q-54 0 -103 28.5t-77 75.5q-26 48 -26 131zM125 1178v188h192 v-188h-192zM264 289q0 -49 27.5 -78t73.5 -29t75 37q13 18 16 36t3 79v94h-74q-121 0 -121 -92v-47zM420 1178v188h192v-188h-192z" />
<glyph unicode="&#xe5;" horiz-adv-x="739" d="M68 223v111q0 109 75 184q41 40 85.5 55t119.5 15h111v84q0 58 -21 84q-32 37 -76 37q-39 0 -66.5 -26.5t-31.5 -68.5h-196q3 123 87 206t207 83q120 0 205.5 -85t85.5 -204v-698h-194v98q-67 -110 -185 -110q-54 0 -103 28.5t-77 75.5q-26 48 -26 131zM201 1307 q0 69 49.5 117.5t118.5 48.5q71 0 119.5 -48.5t48.5 -119.5q0 -69 -49.5 -117.5t-118.5 -48.5t-118.5 49.5t-49.5 118.5zM264 289q0 -49 27.5 -78t73.5 -29t75 37q13 18 16 36t3 79v94h-74q-121 0 -121 -92v-47zM313 1305q0 -23 17.5 -39.5t40.5 -16.5q22 0 38.5 16.5 t16.5 39.5t-16 39t-39 16q-25 0 -41.5 -16t-16.5 -39z" />
<glyph unicode="&#xe6;" horiz-adv-x="1110" d="M68 223v111q0 110 75 182q41 40 87 56t118 16h111v84q0 58 -21 84q-32 37 -76 37q-39 0 -66.5 -26.5t-31.5 -68.5h-196q3 123 87 206t205 83q113 0 197 -84q87 84 199 84q121 0 203.5 -86.5t82.5 -214.5v-268h-389v-101q0 -54 4 -68.5t23 -35.5q25 -31 70 -31 q41 0 66.5 26.5t31.5 74.5h194q0 -126 -87.5 -210.5t-219.5 -84.5q-153 0 -205 110q-51 -58 -105 -84t-122 -26q-69 0 -124 26t-83 72q-28 52 -28 137zM264 287q0 -47 27.5 -76t73.5 -29t75 37q13 18 16 36t3 79v94h-74q-121 0 -121 -92v-49zM653 575h195v99q0 55 -26 87 t-70 32q-99 0 -99 -119v-99z" />
<glyph unicode="&#xe7;" horiz-adv-x="702" d="M72 301v381q0 127 86 216t209 89q102 0 183.5 -68.5t100.5 -170.5q4 -23 4 -66h-194q0 49 -26.5 80t-69.5 31q-46 0 -72.5 -30t-26.5 -81v-381q0 -57 25 -87t71 -30q44 0 71.5 30.5t27.5 78.5h194q5 -116 -71 -203.5t-193 -99.5l-16 -86q18 6 31 6q54 0 89 -37t35 -94 q0 -69 -48.5 -115.5t-121.5 -46.5q-69 0 -143 39l19 86q56 -35 108 -35q25 0 41 18t16 46q0 26 -14 41.5t-39 15.5q-23 0 -51 -14l-29 41l33 141q-229 60 -229 305z" />
<glyph unicode="&#xe8;" horiz-adv-x="722" d="M72 317v369q0 126 85.5 213.5t207.5 87.5q124 0 207 -86t83 -215v-268h-389v-101q0 -54 4 -68.5t23 -35.5q25 -31 69 -31q41 0 67 26.5t32 74.5h194q0 -122 -84.5 -208.5t-205.5 -86.5q-79 0 -149.5 41.5t-106.5 111.5q-22 36 -29.5 73.5t-7.5 102.5zM154 1393h208 l105 -240h-162zM266 575h195v99q0 57 -25 88t-71 31q-28 0 -52.5 -14.5t-36.5 -39.5q-10 -17 -10 -65v-99z" />
<glyph unicode="&#xe9;" horiz-adv-x="722" d="M72 317v369q0 126 85.5 213.5t207.5 87.5q124 0 207 -86t83 -215v-268h-389v-101q0 -54 4 -68.5t23 -35.5q25 -31 69 -31q41 0 67 26.5t32 74.5h194q0 -122 -84.5 -208.5t-205.5 -86.5q-79 0 -149.5 41.5t-106.5 111.5q-22 36 -29.5 73.5t-7.5 102.5zM262 1153l107 240 h209l-154 -240h-162zM266 575h195v99q0 57 -25 88t-71 31q-28 0 -52.5 -14.5t-36.5 -39.5q-10 -17 -10 -65v-99z" />
<glyph unicode="&#xea;" horiz-adv-x="722" d="M72 317v369q0 126 85.5 213.5t207.5 87.5q124 0 207 -86t83 -215v-268h-389v-101q0 -54 4 -68.5t23 -35.5q25 -31 69 -31q41 0 67 26.5t32 74.5h194q0 -122 -84.5 -208.5t-205.5 -86.5q-79 0 -149.5 41.5t-106.5 111.5q-22 36 -29.5 73.5t-7.5 102.5zM113 1147l168 239 h170l159 -239h-176l-74 123l-86 -123h-161zM266 575h195v99q0 57 -25 88t-71 31q-28 0 -52.5 -14.5t-36.5 -39.5q-10 -17 -10 -65v-99z" />
<glyph unicode="&#xeb;" horiz-adv-x="722" d="M72 317v369q0 126 85.5 213.5t207.5 87.5q124 0 207 -86t83 -215v-268h-389v-101q0 -54 4 -68.5t23 -35.5q25 -31 69 -31q41 0 67 26.5t32 74.5h194q0 -122 -84.5 -208.5t-205.5 -86.5q-79 0 -149.5 41.5t-106.5 111.5q-22 36 -29.5 73.5t-7.5 102.5zM119 1178v188h192 v-188h-192zM266 575h195v99q0 57 -25 88t-71 31q-28 0 -52.5 -14.5t-36.5 -39.5q-10 -17 -10 -65v-99zM414 1178v188h192v-188h-192z" />
<glyph unicode="&#xec;" horiz-adv-x="370" d="M-51 1393h209l104 -240h-162zM86 0v975h195v-975h-195z" />
<glyph unicode="&#xed;" horiz-adv-x="370" d="M88 0v975h195v-975h-195zM100 1153l107 240h207l-152 -240h-162z" />
<glyph unicode="&#xee;" horiz-adv-x="370" d="M-63 1147l167 239h170l160 -239h-176l-74 123l-86 -123h-161zM88 0v975h195v-975h-195z" />
<glyph unicode="&#xef;" horiz-adv-x="370" d="M2 1178v188h152v-188h-152zM86 0v975h195v-975h-195zM215 1178v188h152v-188h-152z" />
<glyph unicode="&#xf0;" horiz-adv-x="727" d="M70 299v446q0 71 14.5 110t52.5 73q62 59 150 59q36 0 82 -14l-47 121l-107 -41l-59 155l106 41l-45 117h219l17 -45l108 43l60 -156l-111 -43l115 -311q33 -80 30 -149v-5v-401q0 -133 -84.5 -222t-210.5 -89q-124 0 -207 88.5t-83 222.5zM264 299q0 -52 27 -83.5 t71 -31.5q25 0 48.5 12.5t35.5 32.5q13 21 13 70v389q0 46 -27.5 74.5t-71.5 28.5q-43 0 -69.5 -28.5t-26.5 -74.5v-389z" />
<glyph unicode="&#xf1;" horiz-adv-x="759" d="M88 0v975h195v-94q63 106 182 106q57 0 107.5 -29.5t76.5 -78.5q23 -45 23 -121v-758h-195v686q0 51 -25 79t-69 28t-72 -30t-28 -77v-686h-195zM141 1165q12 205 158 205q28 0 52.5 -6t94.5 -31q28 -8 41 -8q39 0 45 47h127q-6 -88 -24 -121q-39 -80 -131 -80 q-34 0 -96 21q-61 20 -84 20q-19 0 -30 -10.5t-15 -36.5h-138z" />
<glyph unicode="&#xf2;" horiz-adv-x="727" d="M72 299v389q0 128 84.5 213.5t210.5 85.5q124 0 206 -85t82 -214v-389q0 -134 -83.5 -222.5t-209.5 -88.5t-208 88.5t-82 222.5zM156 1393h209l104 -240h-162zM266 299q0 -52 27.5 -83.5t71.5 -31.5q25 0 48.5 12.5t35.5 32.5q12 19 12 70v389q0 46 -27.5 75.5 t-71.5 29.5q-43 0 -69.5 -29.5t-26.5 -75.5v-389z" />
<glyph unicode="&#xf3;" horiz-adv-x="727" d="M72 299v389q0 128 84.5 213.5t210.5 85.5q124 0 206 -85t82 -214v-389q0 -134 -83.5 -222.5t-209.5 -88.5t-208 88.5t-82 222.5zM264 1153l107 240h209l-154 -240h-162zM266 299q0 -52 27.5 -83.5t71.5 -31.5q25 0 48.5 12.5t35.5 32.5q12 19 12 70v389q0 46 -27.5 75.5 t-71.5 29.5q-43 0 -69.5 -29.5t-26.5 -75.5v-389z" />
<glyph unicode="&#xf4;" horiz-adv-x="727" d="M72 299v389q0 128 84.5 213.5t210.5 85.5q124 0 206 -85t82 -214v-389q0 -134 -83.5 -222.5t-209.5 -88.5t-208 88.5t-82 222.5zM115 1147l168 239h170l159 -239h-176l-74 123l-86 -123h-161zM266 299q0 -52 27.5 -83.5t71.5 -31.5q25 0 48.5 12.5t35.5 32.5q12 19 12 70 v389q0 46 -27.5 75.5t-71.5 29.5q-43 0 -69.5 -29.5t-26.5 -75.5v-389z" />
<glyph unicode="&#xf5;" horiz-adv-x="727" d="M72 299v389q0 128 84.5 213.5t210.5 85.5q124 0 206 -85t82 -214v-389q0 -134 -83.5 -222.5t-209.5 -88.5t-208 88.5t-82 222.5zM104 1165q12 205 158 205q28 0 53 -6t95 -31q28 -8 41 -8q39 0 45 47h127q-5 -86 -25 -121q-39 -80 -131 -80q-34 0 -96 21q-61 20 -84 20 q-19 0 -30 -10.5t-15 -36.5h-138zM266 299q0 -52 27.5 -83.5t71.5 -31.5q25 0 48.5 12.5t35.5 32.5q12 19 12 70v389q0 46 -27.5 75.5t-71.5 29.5q-43 0 -69.5 -29.5t-26.5 -75.5v-389z" />
<glyph unicode="&#xf6;" horiz-adv-x="727" d="M72 299v389q0 128 84.5 213.5t210.5 85.5q124 0 206 -85t82 -214v-389q0 -134 -83.5 -222.5t-209.5 -88.5t-208 88.5t-82 222.5zM121 1178v188h192v-188h-192zM266 299q0 -52 27.5 -83.5t71.5 -31.5q25 0 48.5 12.5t35.5 32.5q12 19 12 70v389q0 46 -27.5 75.5 t-71.5 29.5q-43 0 -69.5 -29.5t-26.5 -75.5v-389zM416 1178v188h192v-188h-192z" />
<glyph unicode="&#xf7;" d="M57 557v176h674v-176h-674zM297 272v195h195v-195h-195zM297 819v195h195v-195h-195z" />
<glyph unicode="&#xf8;" horiz-adv-x="747" d="M72 299v389q0 131 86 215t221 84q54 0 104 -18l35 88l129 -51l-43 -115q40 -50 56 -94t16 -109v-389q0 -138 -85 -224.5t-220 -86.5q-57 0 -107 18l-35 -88l-129 51l45 119q-41 47 -57 94t-16 117zM266 354l154 430q-52 9 -53 9q-44 0 -72.5 -29.5t-28.5 -75.5v-334z M328 190q31 -8 47 -8q65 0 94 43q12 19 12 74v322z" />
<glyph unicode="&#xf9;" horiz-adv-x="759" d="M88 242v733h195v-660q0 -62 12 -84q22 -49 84 -49q59 0 84 49q14 23 14 84v660h195v-975h-195v98q-38 -60 -79.5 -85t-100.5 -25q-57 0 -106.5 29t-77.5 79q-15 32 -20 58.5t-5 87.5zM172 1393h209l104 -240h-161z" />
<glyph unicode="&#xfa;" horiz-adv-x="759" d="M88 242v733h195v-660q0 -62 12 -84q22 -49 84 -49q59 0 84 49q14 23 14 84v660h195v-975h-195v98q-38 -60 -79.5 -85t-100.5 -25q-57 0 -106.5 29t-77.5 79q-15 32 -20 58.5t-5 87.5zM281 1153l106 240h209l-154 -240h-161z" />
<glyph unicode="&#xfb;" horiz-adv-x="759" d="M88 242v733h195v-660q0 -62 12 -84q22 -49 84 -49q59 0 84 49q14 23 14 84v660h195v-975h-195v98q-38 -60 -79.5 -85t-100.5 -25q-57 0 -106.5 29t-77.5 79q-15 32 -20 58.5t-5 87.5zM131 1147l168 239h170l160 -239h-176l-74 123l-86 -123h-162z" />
<glyph unicode="&#xfc;" horiz-adv-x="759" d="M88 242v733h195v-660q0 -62 12 -84q22 -49 84 -49q59 0 84 49q14 23 14 84v660h195v-975h-195v98q-38 -60 -79.5 -85t-100.5 -25q-57 0 -106.5 29t-77.5 79q-15 32 -20 58.5t-5 87.5zM137 1178v188h193v-188h-193zM432 1178v188h193v-188h-193z" />
<glyph unicode="&#xfd;" horiz-adv-x="673" d="M-6 975h207l135 -606l135 606h205l-281 -1141q-29 -114 -97.5 -169.5t-182.5 -55.5h-45v184h41q53 0 77 23t41 90l35 133zM266 1153l107 240h207l-152 -240h-162z" />
<glyph unicode="&#xfe;" horiz-adv-x="751" d="M88 -391v1757h195v-487q69 108 184 108q89 0 148 -61.5t59 -155.5v-561q0 -98 -57 -159.5t-148 -61.5q-58 0 -106.5 28.5t-79.5 79.5v-487h-195zM283 303q0 -58 25.5 -89.5t72.5 -31.5q29 0 54 15.5t36 38.5q8 19 8 67v381q0 49 -27 79t-71 30q-43 0 -70.5 -31t-27.5 -78 v-381z" />
<glyph unicode="&#xff;" horiz-adv-x="673" d="M-6 975h207l135 -606l135 606h205l-281 -1141q-29 -114 -97.5 -169.5t-182.5 -55.5h-45v184h41q53 0 77 23t41 90l35 133zM94 1178v188h193v-188h-193zM389 1178v188h193v-188h-193z" />
<glyph unicode="&#x152;" horiz-adv-x="1212" d="M92 332v702q0 151 93.5 247.5t238.5 96.5q13 0 59 -4q84 -8 168 -8h488v-182h-389v-402h342v-182h-342v-405h389v-195h-488q-26 0 -137 -8q-50 -4 -74 -4q-157 0 -252.5 94.5t-95.5 249.5zM287 332q0 -150 149 -150q56 0 87.5 28t31.5 79v786q0 52 -31.5 80.5t-87.5 28.5 q-149 0 -149 -150v-702z" />
<glyph unicode="&#x153;" horiz-adv-x="1112" d="M72 299v389q0 96 47 166q39 61 106.5 97t139.5 36q112 0 196 -84q81 84 195 84q123 0 205.5 -86.5t82.5 -214.5v-268h-389v-101q0 -54 4 -68.5t23 -35.5q25 -31 70 -31q41 0 66.5 26.5t31.5 74.5h194q0 -122 -84 -208.5t-204 -86.5q-114 0 -197 86q-89 -86 -199 -86 q-124 0 -206 88.5t-82 222.5zM266 299q0 -52 27.5 -83.5t71.5 -31.5q57 0 84 45q12 19 12 70v389q0 46 -27.5 75.5t-71.5 29.5q-43 0 -69.5 -29.5t-26.5 -75.5v-389zM655 575h195v99q0 57 -25 88t-71 31q-28 0 -52 -14.5t-36 -39.5q-11 -19 -11 -65v-99z" />
<glyph unicode="&#x178;" horiz-adv-x="702" d="M-8 1366h205l157 -535l160 535h207l-270 -778v-588h-195v588zM96 1466v195h193v-195h-193zM414 1466v195h192v-195h-192z" />
<glyph unicode="&#x2c6;" horiz-adv-x="1024" d="M262 1147l168 239h170l160 -239h-176l-74 123l-86 -123h-162z" />
<glyph unicode="&#x2dc;" horiz-adv-x="1024" d="M254 1165q9 205 156 205q29 0 53.5 -6t95.5 -31q28 -8 41 -8q39 0 45 47h125q-3 -81 -22 -121q-42 -80 -132 -80q-34 0 -96 21q-64 20 -84 20t-30.5 -10.5t-16.5 -36.5h-135z" />
<glyph unicode="&#x2000;" horiz-adv-x="883" />
<glyph unicode="&#x2001;" horiz-adv-x="1767" />
<glyph unicode="&#x2002;" horiz-adv-x="883" />
<glyph unicode="&#x2003;" horiz-adv-x="1767" />
<glyph unicode="&#x2004;" horiz-adv-x="589" />
<glyph unicode="&#x2005;" horiz-adv-x="441" />
<glyph unicode="&#x2006;" horiz-adv-x="294" />
<glyph unicode="&#x2007;" horiz-adv-x="294" />
<glyph unicode="&#x2008;" horiz-adv-x="220" />
<glyph unicode="&#x2009;" horiz-adv-x="353" />
<glyph unicode="&#x200a;" horiz-adv-x="98" />
<glyph unicode="&#x2010;" horiz-adv-x="792" d="M104 440v195h584v-195h-584z" />
<glyph unicode="&#x2011;" horiz-adv-x="792" d="M104 440v195h584v-195h-584z" />
<glyph unicode="&#x2012;" horiz-adv-x="792" d="M104 440v195h584v-195h-584z" />
<glyph unicode="&#x2013;" horiz-adv-x="1071" d="M104 440v195h865v-195h-865z" />
<glyph unicode="&#x2014;" horiz-adv-x="1167" d="M104 440v195h961v-195h-961z" />
<glyph unicode="&#x2018;" horiz-adv-x="346" d="M98 1114v191l146 75v-266h-146z" />
<glyph unicode="&#x2019;" horiz-adv-x="346" d="M102 1102v264h146v-190z" />
<glyph unicode="&#x201a;" horiz-adv-x="346" d="M102 -74v264h146v-190z" />
<glyph unicode="&#x201c;" horiz-adv-x="589" d="M102 1114v191l146 75v-266h-146zM346 1114v191l146 75v-266h-146z" />
<glyph unicode="&#x201d;" horiz-adv-x="589" d="M102 1102v264h146v-190zM346 1102v264h146v-190z" />
<glyph unicode="&#x201e;" horiz-adv-x="585" d="M100 -74v264h146v-190zM344 -74v264h145v-190z" />
<glyph unicode="&#x2022;" horiz-adv-x="1366" d="M401 692q0 120 83.5 202.5t203.5 82.5q115 0 198 -83.5t83 -199.5q0 -118 -83 -201t-200 -83q-118 0 -201.5 82.5t-83.5 199.5z" />
<glyph unicode="&#x2026;" horiz-adv-x="1175" d="M98 0v195h195v-195h-195zM489 0v195h195v-195h-195zM883 0v195h194v-195h-194z" />
<glyph unicode="&#x202f;" horiz-adv-x="353" />
<glyph unicode="&#x2039;" horiz-adv-x="503" d="M35 590l389 389v-193l-195 -196l195 -195v-196z" />
<glyph unicode="&#x203a;" horiz-adv-x="507" d="M96 199v196l195 195l-195 196v193l389 -389z" />
<glyph unicode="&#x205f;" horiz-adv-x="441" />
<glyph unicode="&#x20ac;" horiz-adv-x="964" d="M100 567l35 82h94v82h-129l35 82h94v234q0 142 90.5 236.5t227.5 94.5q135 0 225 -95t90 -236v-72h-194v72q0 63 -32 99t-89 36q-56 0 -89.5 -37t-33.5 -98v-234h346l-35 -82h-311v-82h276l-34 -82h-242v-225q0 -62 5 -80t28 -41q34 -37 88 -37q32 0 61 16.5t47 43.5 q10 19 12.5 34.5t2.5 63.5v47h194v-47q0 -73 -9 -114.5t-34 -84.5q-41 -70 -115.5 -112.5t-156.5 -42.5t-157 42t-116 111q-26 42 -35.5 85.5t-9.5 115.5v225h-129z" />
<glyph unicode="&#x2122;" horiz-adv-x="1230" d="M29 1233v133h454v-133h-151v-686h-154v686h-149zM559 547v819h139l160 -397l156 397h141v-819h-154v420l-104 -277h-82l-102 277v-420h-154z" />
<glyph unicode="&#x25fc;" horiz-adv-x="972" d="M0 0v973h973v-973h-973z" />
<glyph unicode="&#xfb01;" horiz-adv-x="811" d="M33 821v154h96v135q0 115 76 188q40 38 82 53t114 15h56v-180h-60q-38 0 -55.5 -18t-17.5 -58v-135h399v-975h-195v821h-204v-821h-195v821h-96zM528 1176v190h195v-190h-195z" />
<glyph unicode="&#xfb02;" horiz-adv-x="854" d="M33 821v154h96v135q0 115 76 188q40 38 82 53t114 15h322v-1085q0 -58 15.5 -76.5t66.5 -18.5h14v-186h-43q-136 0 -205 90q-25 32 -34 65t-9 91v940h-131q-38 0 -55.5 -18t-17.5 -58v-135h125v-154h-125v-821h-195v821h-96z" />
</font>
</defs>
</svg>
